<?xml version="1.0" encoding="iso-8859-1"?>
<!-- Generator: Adobe Illustrator 19.0.0, SVG Export Plug-In . SVG Version: 6.00 Build 0)  -->
<svg version="1.1" id="Capa_1" xmlns="http://www.w3.org/2000/svg" xmlns:xlink="http://www.w3.org/1999/xlink" x="0px" y="0px"
	 viewBox="0 0 480 480" style="enable-background:new 0 0 480 480;" xml:space="preserve">
<g>
	<g>
		<g>
			<path d="M256,416.248c-7.487-10.184-19.36-16.213-32-16.248h-96v-64h-16v72c0,4.418,3.582,8,8,8h104c13.255,0,24,10.745,24,24h16
				c0-13.255,10.745-24,24-24v-16C275.36,400.035,263.487,406.064,256,416.248z"/>
			<path d="M160,296v-16c0-4.418-3.582-8-8-8H96v-24c0-4.418,3.582-8,8-8h8v16h16V96h96c13.255,0,24,10.745,24,24h16
				c0-13.255,10.745-24,24-24h96v232h16V88c0-4.418-3.582-8-8-8H288c-12.64,0.035-24.513,6.064-32,16.248
				C248.513,86.064,236.64,80.035,224,80H120c-4.418,0-8,3.582-8,8v136h-8c-13.255,0-24,10.745-24,24v24c-13.255,0-24,10.745-24,24
				v40c0,2.122,0.844,4.156,2.344,5.656L80,363.312V480h16V360c0-2.122-0.844-4.156-2.344-5.656L72,332.688V296c0-4.418,3.582-8,8-8
				h64v8c0,4.418-3.582,8-8,8H96c-4.418,0-8,3.582-8,8v16h16v-8h32C149.255,320,160,309.255,160,296z"/>
			<rect x="200" y="432" width="16" height="48"/>
			<path d="M440,344h-72v-40c0-13.255-10.745-24-24-24s-24,10.745-24,24v80c-13.255,0-24,10.745-24,24v40
				c0,2.122,0.844,4.156,2.344,5.656L320,475.312V480h16v-8c0-2.122-0.844-4.156-2.344-5.656L312,444.688V408c0-4.418,3.582-8,8-8h8
				c4.418,0,8-3.582,8-8v-88c0-4.418,3.582-8,8-8s8,3.582,8,8v80h16v-24h16v24h16v-24h16v24h16v-24h8c4.418,0,8,3.582,8,8v112h16
				V368C464,354.745,453.255,344,440,344z"/>
			<path d="M82.344,85.656c3.125,3.124,8.19,3.123,11.314-0.002C95.157,84.154,96,82.121,96,80V64h24c4.418,0,8-3.582,8-8V8
				c0-4.418-3.582-8-8-8H24c-4.418,0-8,3.582-8,8v48c0,4.418,3.582,8,8,8h36.688L82.344,85.656z M32,16h80v32H88
				c-4.418,0-8,3.582-8,8v4.688L69.656,50.344C68.156,48.844,66.122,48,64,48H32V16z"/>
			<rect x="48" y="24" width="16" height="16"/>
			<rect x="80" y="24" width="16" height="16"/>
			<rect x="248" y="136" width="16" height="256"/>
			<path d="M232,120c0-4.418-3.582-8-8-8h-72c-4.418,0-8,3.582-8,8v72c0,4.418,3.582,8,8,8h72c4.418,0,8-3.582,8-8V120z M216,184
				h-56v-56h56V184z"/>
			<rect x="144" y="216" width="88" height="16"/>
			<rect x="176" y="248" width="56" height="16"/>
			<rect x="176" y="304" width="56" height="16"/>
			<path d="M152,336c-4.418,0-8,3.582-8,8v32c0,4.418,3.582,8,8,8h40c4.418,0,8-3.582,8-8v-32c0-4.418-3.582-8-8-8H152z M184,368
				h-24v-16h24V368z"/>
			<rect x="216" y="336" width="16" height="16"/>
			<rect x="216" y="368" width="16" height="16"/>
			<path d="M288,112c-4.418,0-8,3.582-8,8v64c0,4.418,3.582,8,8,8h32c4.418,0,8-3.582,8-8v-64c0-4.418-3.582-8-8-8H288z M312,176
				h-16v-48h16V176z"/>
			<rect x="344" y="112" width="24" height="16"/>
			<rect x="344" y="144" width="24" height="16"/>
			<rect x="344" y="176" width="24" height="16"/>
			<path d="M368,256v-32c0-4.418-3.582-8-8-8h-72c-4.418,0-8,3.582-8,8v32c0,4.418,3.582,8,8,8h72C364.418,264,368,260.418,368,256z
				 M352,248h-56v-16h56V248z"/>
		</g>
	</g>
</g>
<g>
</g>
<g>
</g>
<g>
</g>
<g>
</g>
<g>
</g>
<g>
</g>
<g>
</g>
<g>
</g>
<g>
</g>
<g>
</g>
<g>
</g>
<g>
</g>
<g>
</g>
<g>
</g>
<g>
</g>
</svg>
